{
	"asset":{
		"generator":"Khronos glTF Blender I/O v4.2.70",
		"version":"2.0"
	},
	"scene":0,
	"scenes":[
		{
			"name":"Scene",
			"nodes":[
				0
			]
		}
	],
	"nodes":[
		{
			"mesh":0,
			"name":"Car7"
		}
	],
	"materials":[
		{
			"doubleSided":true,
			"name":"Car1Windows",
			"pbrMetallicRoughness":{
				"baseColorFactor":[
					0.048856910318136215,
					0.1685173064470291,
					0.8000000715255737,
					1
				],
				"metallicFactor":0,
				"roughnessFactor":0.5
			}
		},
		{
			"doubleSided":true,
			"name":"Car7",
			"pbrMetallicRoughness":{
				"baseColorFactor":[
					0.6151765584945679,
					0.06729862093925476,
					0,
					1
				],
				"metallicFactor":0,
				"roughnessFactor":0.5
			}
		},
		{
			"doubleSided":true,
			"name":"CarLights",
			"pbrMetallicRoughness":{
				"baseColorFactor":[
					0.5367804169654846,
					0.8000000715255737,
					0.028742065653204918,
					1
				],
				"metallicFactor":0,
				"roughnessFactor":0.5
			}
		},
		{
			"doubleSided":true,
			"name":"CarFront",
			"pbrMetallicRoughness":{
				"baseColorFactor":[
					0.09850385785102844,
					0.09850385785102844,
					0.09850385785102844,
					1
				],
				"metallicFactor":0,
				"roughnessFactor":0.5
			}
		},
		{
			"doubleSided":true,
			"name":"CarEdges",
			"pbrMetallicRoughness":{
				"baseColorFactor":[
					0,
					0,
					0,
					1
				],
				"metallicFactor":0,
				"roughnessFactor":0.5
			}
		},
		{
			"doubleSided":true,
			"name":"CarTire",
			"pbrMetallicRoughness":{
				"baseColorFactor":[
					0.800000011920929,
					0.800000011920929,
					0.800000011920929,
					1
				],
				"metallicFactor":0,
				"roughnessFactor":0.5
			}
		}
	],
	"meshes":[
		{
			"name":"Cylinder.019",
			"primitives":[
				{
					"attributes":{
						"POSITION":0,
						"NORMAL":1,
						"TEXCOORD_0":2
					},
					"indices":3,
					"material":0
				},
				{
					"attributes":{
						"POSITION":4,
						"NORMAL":5,
						"TEXCOORD_0":6
					},
					"indices":7,
					"material":1
				},
				{
					"attributes":{
						"POSITION":8,
						"NORMAL":9,
						"TEXCOORD_0":10
					},
					"indices":11,
					"material":2
				},
				{
					"attributes":{
						"POSITION":12,
						"NORMAL":13,
						"TEXCOORD_0":14
					},
					"indices":15,
					"material":3
				},
				{
					"attributes":{
						"POSITION":16,
						"NORMAL":17,
						"TEXCOORD_0":18
					},
					"indices":19,
					"material":4
				},
				{
					"attributes":{
						"POSITION":20,
						"NORMAL":21,
						"TEXCOORD_0":22
					},
					"indices":23,
					"material":5
				}
			]
		}
	],
	"accessors":[
		{
			"bufferView":0,
			"componentType":5126,
			"count":184,
			"max":[
				0.21892940998077393,
				0.3625069260597229,
				0.3580947518348694
			],
			"min":[
				-0.2586081922054291,
				-0.4693670868873596,
				-0.358094722032547
			],
			"type":"VEC3"
		},
		{
			"bufferView":1,
			"componentType":5126,
			"count":184,
			"type":"VEC3"
		},
		{
			"bufferView":2,
			"componentType":5126,
			"count":184,
			"type":"VEC2"
		},
		{
			"bufferView":3,
			"componentType":5123,
			"count":354,
			"type":"SCALAR"
		},
		{
			"bufferView":4,
			"componentType":5126,
			"count":1921,
			"max":[
				0.15633460879325867,
				0.6316248774528503,
				0.3655414581298828
			],
			"min":[
				-0.28168413043022156,
				-0.5661986470222473,
				-0.3655414283275604
			],
			"type":"VEC3"
		},
		{
			"bufferView":5,
			"componentType":5126,
			"count":1921,
			"type":"VEC3"
		},
		{
			"bufferView":6,
			"componentType":5126,
			"count":1921,
			"type":"VEC2"
		},
		{
			"bufferView":7,
			"componentType":5123,
			"count":4047,
			"type":"SCALAR"
		},
		{
			"bufferView":8,
			"componentType":5126,
			"count":136,
			"max":[
				0.06626547873020172,
				0.627148449420929,
				0.2275291085243225
			],
			"min":[
				-0.0275537371635437,
				-0.5708431601524353,
				-0.22783806920051575
			],
			"type":"VEC3"
		},
		{
			"bufferView":9,
			"componentType":5126,
			"count":136,
			"type":"VEC3"
		},
		{
			"bufferView":10,
			"componentType":5126,
			"count":136,
			"type":"VEC2"
		},
		{
			"bufferView":11,
			"componentType":5123,
			"count":264,
			"type":"SCALAR"
		},
		{
			"bufferView":12,
			"componentType":5126,
			"count":800,
			"max":[
				0.224770650267601,
				0.6316248774528503,
				0.32818228006362915
			],
			"min":[
				0.00963127613067627,
				-0.6188657283782959,
				-0.32849133014678955
			],
			"type":"VEC3"
		},
		{
			"bufferView":13,
			"componentType":5126,
			"count":800,
			"type":"VEC3"
		},
		{
			"bufferView":14,
			"componentType":5126,
			"count":800,
			"type":"VEC2"
		},
		{
			"bufferView":15,
			"componentType":5123,
			"count":1296,
			"type":"SCALAR"
		},
		{
			"bufferView":16,
			"componentType":5126,
			"count":872,
			"max":[
				0.2578665018081665,
				0.6212831139564514,
				0.30094224214553833
			],
			"min":[
				-0.03769838809967041,
				-0.5884215235710144,
				-0.30287718772888184
			],
			"type":"VEC3"
		},
		{
			"bufferView":17,
			"componentType":5126,
			"count":872,
			"type":"VEC3"
		},
		{
			"bufferView":18,
			"componentType":5126,
			"count":872,
			"type":"VEC2"
		},
		{
			"bufferView":19,
			"componentType":5123,
			"count":1806,
			"type":"SCALAR"
		},
		{
			"bufferView":20,
			"componentType":5126,
			"count":448,
			"max":[
				0.16785351932048798,
				0.39325088262557983,
				0.30667710304260254
			],
			"min":[
				0.12821418046951294,
				-0.34159427881240845,
				-0.3086121082305908
			],
			"type":"VEC3"
		},
		{
			"bufferView":21,
			"componentType":5126,
			"count":448,
			"type":"VEC3"
		},
		{
			"bufferView":22,
			"componentType":5126,
			"count":448,
			"type":"VEC2"
		},
		{
			"bufferView":23,
			"componentType":5123,
			"count":744,
			"type":"SCALAR"
		}
	],
	"bufferViews":[
		{
			"buffer":0,
			"byteLength":2208,
			"byteOffset":0,
			"target":34962
		},
		{
			"buffer":0,
			"byteLength":2208,
			"byteOffset":2208,
			"target":34962
		},
		{
			"buffer":0,
			"byteLength":1472,
			"byteOffset":4416,
			"target":34962
		},
		{
			"buffer":0,
			"byteLength":708,
			"byteOffset":5888,
			"target":34963
		},
		{
			"buffer":0,
			"byteLength":23052,
			"byteOffset":6596,
			"target":34962
		},
		{
			"buffer":0,
			"byteLength":23052,
			"byteOffset":29648,
			"target":34962
		},
		{
			"buffer":0,
			"byteLength":15368,
			"byteOffset":52700,
			"target":34962
		},
		{
			"buffer":0,
			"byteLength":8094,
			"byteOffset":68068,
			"target":34963
		},
		{
			"buffer":0,
			"byteLength":1632,
			"byteOffset":76164,
			"target":34962
		},
		{
			"buffer":0,
			"byteLength":1632,
			"byteOffset":77796,
			"target":34962
		},
		{
			"buffer":0,
			"byteLength":1088,
			"byteOffset":79428,
			"target":34962
		},
		{
			"buffer":0,
			"byteLength":528,
			"byteOffset":80516,
			"target":34963
		},
		{
			"buffer":0,
			"byteLength":9600,
			"byteOffset":81044,
			"target":34962
		},
		{
			"buffer":0,
			"byteLength":9600,
			"byteOffset":90644,
			"target":34962
		},
		{
			"buffer":0,
			"byteLength":6400,
			"byteOffset":100244,
			"target":34962
		},
		{
			"buffer":0,
			"byteLength":2592,
			"byteOffset":106644,
			"target":34963
		},
		{
			"buffer":0,
			"byteLength":10464,
			"byteOffset":109236,
			"target":34962
		},
		{
			"buffer":0,
			"byteLength":10464,
			"byteOffset":119700,
			"target":34962
		},
		{
			"buffer":0,
			"byteLength":6976,
			"byteOffset":130164,
			"target":34962
		},
		{
			"buffer":0,
			"byteLength":3612,
			"byteOffset":137140,
			"target":34963
		},
		{
			"buffer":0,
			"byteLength":5376,
			"byteOffset":140752,
			"target":34962
		},
		{
			"buffer":0,
			"byteLength":5376,
			"byteOffset":146128,
			"target":34962
		},
		{
			"buffer":0,
			"byteLength":3584,
			"byteOffset":151504,
			"target":34962
		},
		{
			"buffer":0,
			"byteLength":1488,
			"byteOffset":155088,
			"target":34963
		}
	],
	"buffers":[
		{
			"byteLength":156576,
			"uri":"orange_car.bin"
		}
	]
}
