{
	"asset":{
		"generator":"Khronos glTF Blender I/O v4.2.70",
		"version":"2.0"
	},
	"scene":0,
	"scenes":[
		{
			"name":"Scene",
			"nodes":[
				0
			]
		}
	],
	"nodes":[
		{
			"mesh":0,
			"name":"Firetruck"
		}
	],
	"materials":[
		{
			"doubleSided":true,
			"name":"Red",
			"pbrMetallicRoughness":{
				"baseColorFactor":[
					0.8000000715255737,
					0.0035440169740468264,
					0,
					1
				],
				"metallicFactor":0,
				"roughnessFactor":0.5
			}
		},
		{
			"doubleSided":true,
			"name":"Car1Windows",
			"pbrMetallicRoughness":{
				"baseColorFactor":[
					0.048856910318136215,
					0.1685173064470291,
					0.8000000715255737,
					1
				],
				"metallicFactor":0,
				"roughnessFactor":0.5
			}
		},
		{
			"doubleSided":true,
			"name":"CarFront",
			"pbrMetallicRoughness":{
				"baseColorFactor":[
					0.09850385785102844,
					0.09850385785102844,
					0.09850385785102844,
					1
				],
				"metallicFactor":0,
				"roughnessFactor":0.5
			}
		},
		{
			"doubleSided":true,
			"name":"Back1",
			"pbrMetallicRoughness":{
				"baseColorFactor":[
					0.8000000715255737,
					0.5876801013946533,
					0.012610157951712608,
					1
				],
				"metallicFactor":0,
				"roughnessFactor":0.5
			}
		},
		{
			"doubleSided":true,
			"name":"Blue",
			"pbrMetallicRoughness":{
				"baseColorFactor":[
					0.019177839159965515,
					0,
					0.8000000715255737,
					1
				],
				"metallicFactor":0,
				"roughnessFactor":0.5
			}
		},
		{
			"doubleSided":true,
			"name":"SirenEdge",
			"pbrMetallicRoughness":{
				"baseColorFactor":[
					0.04954921826720238,
					0.04954921826720238,
					0.04954921826720238,
					1
				],
				"metallicFactor":0,
				"roughnessFactor":0.5
			}
		},
		{
			"doubleSided":true,
			"name":"Ladder",
			"pbrMetallicRoughness":{
				"baseColorFactor":[
					0.13758400082588196,
					0.13758400082588196,
					0.13758400082588196,
					1
				],
				"metallicFactor":0,
				"roughnessFactor":0.5
			}
		},
		{
			"doubleSided":true,
			"name":"CarEdges",
			"pbrMetallicRoughness":{
				"baseColorFactor":[
					0,
					0,
					0,
					1
				],
				"metallicFactor":0,
				"roughnessFactor":0.5
			}
		},
		{
			"doubleSided":true,
			"name":"Truck1",
			"pbrMetallicRoughness":{
				"baseColorFactor":[
					0.006370013579726219,
					0.0053774709813296795,
					0.005804835353046656,
					1
				],
				"metallicFactor":0,
				"roughnessFactor":0.2866666615009308
			}
		},
		{
			"doubleSided":true,
			"name":"CarLights",
			"pbrMetallicRoughness":{
				"baseColorFactor":[
					0.5367804169654846,
					0.8000000715255737,
					0.028742065653204918,
					1
				],
				"metallicFactor":0,
				"roughnessFactor":0.5
			}
		}
	],
	"meshes":[
		{
			"name":"Cube.013",
			"primitives":[
				{
					"attributes":{
						"POSITION":0,
						"NORMAL":1,
						"TEXCOORD_0":2
					},
					"indices":3,
					"material":0
				},
				{
					"attributes":{
						"POSITION":4,
						"NORMAL":5,
						"TEXCOORD_0":6
					},
					"indices":7,
					"material":1
				},
				{
					"attributes":{
						"POSITION":8,
						"NORMAL":9,
						"TEXCOORD_0":10
					},
					"indices":11,
					"material":2
				},
				{
					"attributes":{
						"POSITION":12,
						"NORMAL":13,
						"TEXCOORD_0":14
					},
					"indices":15,
					"material":3
				},
				{
					"attributes":{
						"POSITION":16,
						"NORMAL":17,
						"TEXCOORD_0":18
					},
					"indices":19,
					"material":4
				},
				{
					"attributes":{
						"POSITION":20,
						"NORMAL":21,
						"TEXCOORD_0":22
					},
					"indices":23,
					"material":0
				},
				{
					"attributes":{
						"POSITION":24,
						"NORMAL":25,
						"TEXCOORD_0":26
					},
					"indices":27,
					"material":5
				},
				{
					"attributes":{
						"POSITION":28,
						"NORMAL":29,
						"TEXCOORD_0":30
					},
					"indices":31,
					"material":6
				},
				{
					"attributes":{
						"POSITION":32,
						"NORMAL":33,
						"TEXCOORD_0":34
					},
					"indices":35,
					"material":7
				},
				{
					"attributes":{
						"POSITION":36,
						"NORMAL":37,
						"TEXCOORD_0":38
					},
					"indices":39,
					"material":8
				},
				{
					"attributes":{
						"POSITION":40,
						"NORMAL":41,
						"TEXCOORD_0":42
					},
					"indices":43,
					"material":9
				}
			]
		}
	],
	"accessors":[
		{
			"bufferView":0,
			"componentType":5126,
			"count":999,
			"max":[
				1.1609325408935547,
				0.443004846572876,
				0.47844457626342773
			],
			"min":[
				-1.1353368759155273,
				-0.4292280375957489,
				-0.47817564010620117
			],
			"type":"VEC3"
		},
		{
			"bufferView":1,
			"componentType":5126,
			"count":999,
			"type":"VEC3"
		},
		{
			"bufferView":2,
			"componentType":5126,
			"count":999,
			"type":"VEC2"
		},
		{
			"bufferView":3,
			"componentType":5123,
			"count":1920,
			"type":"SCALAR"
		},
		{
			"bufferView":4,
			"componentType":5126,
			"count":30,
			"max":[
				1.0795831680297852,
				0.3911759853363037,
				0.5309362411499023
			],
			"min":[
				0.5081348419189453,
				0.04631161689758301,
				-0.5306673049926758
			],
			"type":"VEC3"
		},
		{
			"bufferView":5,
			"componentType":5126,
			"count":30,
			"type":"VEC3"
		},
		{
			"bufferView":6,
			"componentType":5126,
			"count":30,
			"type":"VEC2"
		},
		{
			"bufferView":7,
			"componentType":5123,
			"count":48,
			"type":"SCALAR"
		},
		{
			"bufferView":8,
			"componentType":5126,
			"count":1593,
			"max":[
				1.1673307418823242,
				0.4071810245513916,
				0.499051570892334
			],
			"min":[
				-1.1353378295898438,
				-0.5057228207588196,
				-0.4987826347351074
			],
			"type":"VEC3"
		},
		{
			"bufferView":9,
			"componentType":5126,
			"count":1593,
			"type":"VEC3"
		},
		{
			"bufferView":10,
			"componentType":5126,
			"count":1593,
			"type":"VEC2"
		},
		{
			"bufferView":11,
			"componentType":5123,
			"count":2664,
			"type":"SCALAR"
		},
		{
			"bufferView":12,
			"componentType":5126,
			"count":8,
			"max":[
				0.417510986328125,
				0.006888389587402344,
				0.43264245986938477
			],
			"min":[
				-1.0887517929077148,
				-0.04602706432342529,
				-0.4323735237121582
			],
			"type":"VEC3"
		},
		{
			"bufferView":13,
			"componentType":5126,
			"count":8,
			"type":"VEC3"
		},
		{
			"bufferView":14,
			"componentType":5126,
			"count":8,
			"type":"VEC2"
		},
		{
			"bufferView":15,
			"componentType":5123,
			"count":12,
			"type":"SCALAR"
		},
		{
			"bufferView":16,
			"componentType":5126,
			"count":16,
			"max":[
				0.8616981506347656,
				0.5148802995681763,
				0.1933445930480957
			],
			"min":[
				0.7730379104614258,
				0.443004846572876,
				-0.00011205673217773438
			],
			"type":"VEC3"
		},
		{
			"bufferView":17,
			"componentType":5126,
			"count":16,
			"type":"VEC3"
		},
		{
			"bufferView":18,
			"componentType":5126,
			"count":16,
			"type":"VEC2"
		},
		{
			"bufferView":19,
			"componentType":5123,
			"count":24,
			"type":"SCALAR"
		},
		{
			"bufferView":20,
			"componentType":5126,
			"count":16,
			"max":[
				0.8616981506347656,
				0.5148802995681763,
				-0.051301002502441406
			],
			"min":[
				0.7730379104614258,
				0.443004846572876,
				-0.24475765228271484
			],
			"type":"VEC3"
		},
		{
			"bufferView":21,
			"componentType":5126,
			"count":16,
			"type":"VEC3"
		},
		{
			"bufferView":22,
			"componentType":5126,
			"count":16,
			"type":"VEC2"
		},
		{
			"bufferView":23,
			"componentType":5123,
			"count":24,
			"type":"SCALAR"
		},
		{
			"bufferView":24,
			"componentType":5126,
			"count":12,
			"max":[
				0.8616981506347656,
				0.5148802995681763,
				-0.00011205673217773438
			],
			"min":[
				0.7730379104614258,
				0.443004846572876,
				-0.051301002502441406
			],
			"type":"VEC3"
		},
		{
			"bufferView":25,
			"componentType":5126,
			"count":12,
			"type":"VEC3"
		},
		{
			"bufferView":26,
			"componentType":5126,
			"count":12,
			"type":"VEC2"
		},
		{
			"bufferView":27,
			"componentType":5123,
			"count":18,
			"type":"SCALAR"
		},
		{
			"bufferView":28,
			"componentType":5126,
			"count":360,
			"max":[
				0.6573734283447266,
				0.5366498231887817,
				0.1674060821533203
			],
			"min":[
				-1.492274284362793,
				0.4430042505264282,
				-0.16713714599609375
			],
			"type":"VEC3"
		},
		{
			"bufferView":29,
			"componentType":5126,
			"count":360,
			"type":"VEC3"
		},
		{
			"bufferView":30,
			"componentType":5126,
			"count":360,
			"type":"VEC2"
		},
		{
			"bufferView":31,
			"componentType":5123,
			"count":1008,
			"type":"SCALAR"
		},
		{
			"bufferView":32,
			"componentType":5126,
			"count":984,
			"max":[
				1.0854682922363281,
				0.2998485565185547,
				0.5479526519775391
			],
			"min":[
				-0.7925224304199219,
				-0.5533276796340942,
				-0.5476837158203125
			],
			"type":"VEC3"
		},
		{
			"bufferView":33,
			"componentType":5126,
			"count":984,
			"type":"VEC3"
		},
		{
			"bufferView":34,
			"componentType":5126,
			"count":984,
			"type":"VEC2"
		},
		{
			"bufferView":35,
			"componentType":5123,
			"count":1560,
			"type":"SCALAR"
		},
		{
			"bufferView":36,
			"componentType":5126,
			"count":56,
			"max":[
				1.0854682922363281,
				0.2998485565185547,
				0.5479526519775391
			],
			"min":[
				1.0281867980957031,
				0.024924874305725098,
				-0.5476837158203125
			],
			"type":"VEC3"
		},
		{
			"bufferView":37,
			"componentType":5126,
			"count":56,
			"type":"VEC3"
		},
		{
			"bufferView":38,
			"componentType":5126,
			"count":56,
			"type":"VEC2"
		},
		{
			"bufferView":39,
			"componentType":5123,
			"count":108,
			"type":"SCALAR"
		},
		{
			"bufferView":40,
			"componentType":5126,
			"count":8,
			"max":[
				1.1609325408935547,
				-0.18315339088439941,
				0.40640735626220703
			],
			"min":[
				1.1609325408935547,
				-0.3007195293903351,
				-0.40613842010498047
			],
			"type":"VEC3"
		},
		{
			"bufferView":41,
			"componentType":5126,
			"count":8,
			"type":"VEC3"
		},
		{
			"bufferView":42,
			"componentType":5126,
			"count":8,
			"type":"VEC2"
		},
		{
			"bufferView":43,
			"componentType":5123,
			"count":12,
			"type":"SCALAR"
		}
	],
	"bufferViews":[
		{
			"buffer":0,
			"byteLength":11988,
			"byteOffset":0,
			"target":34962
		},
		{
			"buffer":0,
			"byteLength":11988,
			"byteOffset":11988,
			"target":34962
		},
		{
			"buffer":0,
			"byteLength":7992,
			"byteOffset":23976,
			"target":34962
		},
		{
			"buffer":0,
			"byteLength":3840,
			"byteOffset":31968,
			"target":34963
		},
		{
			"buffer":0,
			"byteLength":360,
			"byteOffset":35808,
			"target":34962
		},
		{
			"buffer":0,
			"byteLength":360,
			"byteOffset":36168,
			"target":34962
		},
		{
			"buffer":0,
			"byteLength":240,
			"byteOffset":36528,
			"target":34962
		},
		{
			"buffer":0,
			"byteLength":96,
			"byteOffset":36768,
			"target":34963
		},
		{
			"buffer":0,
			"byteLength":19116,
			"byteOffset":36864,
			"target":34962
		},
		{
			"buffer":0,
			"byteLength":19116,
			"byteOffset":55980,
			"target":34962
		},
		{
			"buffer":0,
			"byteLength":12744,
			"byteOffset":75096,
			"target":34962
		},
		{
			"buffer":0,
			"byteLength":5328,
			"byteOffset":87840,
			"target":34963
		},
		{
			"buffer":0,
			"byteLength":96,
			"byteOffset":93168,
			"target":34962
		},
		{
			"buffer":0,
			"byteLength":96,
			"byteOffset":93264,
			"target":34962
		},
		{
			"buffer":0,
			"byteLength":64,
			"byteOffset":93360,
			"target":34962
		},
		{
			"buffer":0,
			"byteLength":24,
			"byteOffset":93424,
			"target":34963
		},
		{
			"buffer":0,
			"byteLength":192,
			"byteOffset":93448,
			"target":34962
		},
		{
			"buffer":0,
			"byteLength":192,
			"byteOffset":93640,
			"target":34962
		},
		{
			"buffer":0,
			"byteLength":128,
			"byteOffset":93832,
			"target":34962
		},
		{
			"buffer":0,
			"byteLength":48,
			"byteOffset":93960,
			"target":34963
		},
		{
			"buffer":0,
			"byteLength":192,
			"byteOffset":94008,
			"target":34962
		},
		{
			"buffer":0,
			"byteLength":192,
			"byteOffset":94200,
			"target":34962
		},
		{
			"buffer":0,
			"byteLength":128,
			"byteOffset":94392,
			"target":34962
		},
		{
			"buffer":0,
			"byteLength":48,
			"byteOffset":94520,
			"target":34963
		},
		{
			"buffer":0,
			"byteLength":144,
			"byteOffset":94568,
			"target":34962
		},
		{
			"buffer":0,
			"byteLength":144,
			"byteOffset":94712,
			"target":34962
		},
		{
			"buffer":0,
			"byteLength":96,
			"byteOffset":94856,
			"target":34962
		},
		{
			"buffer":0,
			"byteLength":36,
			"byteOffset":94952,
			"target":34963
		},
		{
			"buffer":0,
			"byteLength":4320,
			"byteOffset":94988,
			"target":34962
		},
		{
			"buffer":0,
			"byteLength":4320,
			"byteOffset":99308,
			"target":34962
		},
		{
			"buffer":0,
			"byteLength":2880,
			"byteOffset":103628,
			"target":34962
		},
		{
			"buffer":0,
			"byteLength":2016,
			"byteOffset":106508,
			"target":34963
		},
		{
			"buffer":0,
			"byteLength":11808,
			"byteOffset":108524,
			"target":34962
		},
		{
			"buffer":0,
			"byteLength":11808,
			"byteOffset":120332,
			"target":34962
		},
		{
			"buffer":0,
			"byteLength":7872,
			"byteOffset":132140,
			"target":34962
		},
		{
			"buffer":0,
			"byteLength":3120,
			"byteOffset":140012,
			"target":34963
		},
		{
			"buffer":0,
			"byteLength":672,
			"byteOffset":143132,
			"target":34962
		},
		{
			"buffer":0,
			"byteLength":672,
			"byteOffset":143804,
			"target":34962
		},
		{
			"buffer":0,
			"byteLength":448,
			"byteOffset":144476,
			"target":34962
		},
		{
			"buffer":0,
			"byteLength":216,
			"byteOffset":144924,
			"target":34963
		},
		{
			"buffer":0,
			"byteLength":96,
			"byteOffset":145140,
			"target":34962
		},
		{
			"buffer":0,
			"byteLength":96,
			"byteOffset":145236,
			"target":34962
		},
		{
			"buffer":0,
			"byteLength":64,
			"byteOffset":145332,
			"target":34962
		},
		{
			"buffer":0,
			"byteLength":24,
			"byteOffset":145396,
			"target":34963
		}
	],
	"buffers":[
		{
			"byteLength":145420,
			"uri":"fire_truck.bin"
		}
	]
}
