{
	"asset":{
		"generator":"Khronos glTF Blender I/O v4.2.70",
		"version":"2.0"
	},
	"extensionsUsed":[
		"KHR_materials_specular",
		"KHR_materials_ior"
	],
	"scene":0,
	"scenes":[
		{
			"name":"Scene",
			"nodes":[
				0
			]
		}
	],
	"nodes":[
		{
			"mesh":0,
			"name":"Cloud_3",
			"scale":[
				3.7894296646118164,
				3.379314661026001,
				3.8323442935943604
			]
		}
	],
	"materials":[
		{
			"doubleSided":true,
			"extensions":{
				"KHR_materials_specular":{
					"specularFactor":0
				},
				"KHR_materials_ior":{
					"ior":1.4500000476837158
				}
			},
			"name":"Cloud_Mat",
			"pbrMetallicRoughness":{
				"baseColorFactor":[
					0.800000011920929,
					0.800000011920929,
					0.800000011920929,
					1
				],
				"metallicFactor":0,
				"roughnessFactor":0
			}
		}
	],
	"meshes":[
		{
			"name":"Icosphere.037",
			"primitives":[
				{
					"attributes":{
						"POSITION":0,
						"NORMAL":1,
						"TEXCOORD_0":2
					},
					"indices":3,
					"material":0
				}
			]
		}
	],
	"accessors":[
		{
			"bufferView":0,
			"componentType":5126,
			"count":1776,
			"max":[
				1.105211853981018,
				2.5475261211395264,
				3.3151280879974365
			],
			"min":[
				-1.178500771522522,
				-1.2020741701126099,
				-4.166985988616943
			],
			"type":"VEC3"
		},
		{
			"bufferView":1,
			"componentType":5126,
			"count":1776,
			"type":"VEC3"
		},
		{
			"bufferView":2,
			"componentType":5126,
			"count":1776,
			"type":"VEC2"
		},
		{
			"bufferView":3,
			"componentType":5123,
			"count":1776,
			"type":"SCALAR"
		}
	],
	"bufferViews":[
		{
			"buffer":0,
			"byteLength":21312,
			"byteOffset":0,
			"target":34962
		},
		{
			"buffer":0,
			"byteLength":21312,
			"byteOffset":21312,
			"target":34962
		},
		{
			"buffer":0,
			"byteLength":14208,
			"byteOffset":42624,
			"target":34962
		},
		{
			"buffer":0,
			"byteLength":3552,
			"byteOffset":56832,
			"target":34963
		}
	],
	"buffers":[
		{
			"byteLength":60384,
			"uri":"LowPolyClouds.bin"
		}
	]
}
