{
	"asset":{
		"generator":"Khronos glTF Blender I/O v4.2.70",
		"version":"2.0"
	},
	"scene":0,
	"scenes":[
		{
			"name":"Scene",
			"nodes":[
				0
			]
		}
	],
	"nodes":[
		{
			"mesh":0,
			"name":"Tree4"
		}
	],
	"materials":[
		{
			"doubleSided":true,
			"name":"Wood",
			"pbrMetallicRoughness":{
				"baseColorFactor":[
					0.08714022487401962,
					0.03188745304942131,
					0.00039870874024927616,
					1
				],
				"metallicFactor":0,
				"roughnessFactor":0.5
			}
		},
		{
			"doubleSided":true,
			"name":"Leaves",
			"pbrMetallicRoughness":{
				"baseColorFactor":[
					0,
					0.49692150950431824,
					0.004724801052361727,
					1
				],
				"metallicFactor":0,
				"roughnessFactor":0.5
			}
		}
	],
	"meshes":[
		{
			"name":"Cylinder.056",
			"primitives":[
				{
					"attributes":{
						"POSITION":0,
						"NORMAL":1,
						"TEXCOORD_0":2
					},
					"indices":3,
					"material":0
				},
				{
					"attributes":{
						"POSITION":4,
						"NORMAL":5,
						"TEXCOORD_0":6
					},
					"indices":7,
					"material":1
				}
			]
		}
	],
	"accessors":[
		{
			"bufferView":0,
			"componentType":5126,
			"count":976,
			"max":[
				0.5271830558776855,
				2.351674795150757,
				0.3892573416233063
			],
			"min":[
				-0.5186758637428284,
				2.0031702963052567e-09,
				-0.7295655608177185
			],
			"type":"VEC3"
		},
		{
			"bufferView":1,
			"componentType":5126,
			"count":976,
			"type":"VEC3"
		},
		{
			"bufferView":2,
			"componentType":5126,
			"count":976,
			"type":"VEC2"
		},
		{
			"bufferView":3,
			"componentType":5123,
			"count":1500,
			"type":"SCALAR"
		},
		{
			"bufferView":4,
			"componentType":5126,
			"count":300,
			"max":[
				0.7361673712730408,
				3.315702438354492,
				0.8495178818702698
			],
			"min":[
				-1.1542143821716309,
				1.7583236694335938,
				-0.9469380974769592
			],
			"type":"VEC3"
		},
		{
			"bufferView":5,
			"componentType":5126,
			"count":300,
			"type":"VEC3"
		},
		{
			"bufferView":6,
			"componentType":5126,
			"count":300,
			"type":"VEC2"
		},
		{
			"bufferView":7,
			"componentType":5123,
			"count":300,
			"type":"SCALAR"
		}
	],
	"bufferViews":[
		{
			"buffer":0,
			"byteLength":11712,
			"byteOffset":0,
			"target":34962
		},
		{
			"buffer":0,
			"byteLength":11712,
			"byteOffset":11712,
			"target":34962
		},
		{
			"buffer":0,
			"byteLength":7808,
			"byteOffset":23424,
			"target":34962
		},
		{
			"buffer":0,
			"byteLength":3000,
			"byteOffset":31232,
			"target":34963
		},
		{
			"buffer":0,
			"byteLength":3600,
			"byteOffset":34232,
			"target":34962
		},
		{
			"buffer":0,
			"byteLength":3600,
			"byteOffset":37832,
			"target":34962
		},
		{
			"buffer":0,
			"byteLength":2400,
			"byteOffset":41432,
			"target":34962
		},
		{
			"buffer":0,
			"byteLength":600,
			"byteOffset":43832,
			"target":34963
		}
	],
	"buffers":[
		{
			"byteLength":44432,
			"uri":"tall_tree.bin"
		}
	]
}
