{
	"asset":{
		"generator":"Khronos glTF Blender I/O v4.2.70",
		"version":"2.0"
	},
	"scene":0,
	"scenes":[
		{
			"name":"Scene",
			"nodes":[
				0
			]
		}
	],
	"nodes":[
		{
			"mesh":0,
			"name":"SchoolBus2"
		}
	],
	"materials":[
		{
			"doubleSided":true,
			"name":"SchoolBus2",
			"pbrMetallicRoughness":{
				"baseColorFactor":[
					0.4769885241985321,
					0.34435340762138367,
					0,
					1
				],
				"metallicFactor":0,
				"roughnessFactor":0.5
			}
		},
		{
			"doubleSided":true,
			"name":"Car1Windows",
			"pbrMetallicRoughness":{
				"baseColorFactor":[
					0.048856910318136215,
					0.1685173064470291,
					0.8000000715255737,
					1
				],
				"metallicFactor":0,
				"roughnessFactor":0.5
			}
		},
		{
			"doubleSided":true,
			"name":"BackLights",
			"pbrMetallicRoughness":{
				"baseColorFactor":[
					0.8000000715255737,
					0,
					0.009557452984154224,
					1
				],
				"metallicFactor":0,
				"roughnessFactor":0.5
			}
		},
		{
			"doubleSided":true,
			"name":"CarLights",
			"pbrMetallicRoughness":{
				"baseColorFactor":[
					0.5367804169654846,
					0.8000000715255737,
					0.028742065653204918,
					1
				],
				"metallicFactor":0,
				"roughnessFactor":0.5
			}
		},
		{
			"doubleSided":true,
			"name":"BusLight",
			"pbrMetallicRoughness":{
				"baseColorFactor":[
					0.8000000715255737,
					0.11405224353075027,
					0,
					1
				],
				"metallicFactor":0,
				"roughnessFactor":0.5
			}
		},
		{
			"doubleSided":true,
			"name":"CarEdges",
			"pbrMetallicRoughness":{
				"baseColorFactor":[
					0,
					0,
					0,
					1
				],
				"metallicFactor":0,
				"roughnessFactor":0.5
			}
		},
		{
			"doubleSided":true,
			"name":"CarFront",
			"pbrMetallicRoughness":{
				"baseColorFactor":[
					0.09850385785102844,
					0.09850385785102844,
					0.09850385785102844,
					1
				],
				"metallicFactor":0,
				"roughnessFactor":0.5
			}
		},
		{
			"doubleSided":true,
			"name":"White",
			"pbrMetallicRoughness":{
				"baseColorFactor":[
					0.800000011920929,
					0.800000011920929,
					0.800000011920929,
					1
				],
				"metallicFactor":0,
				"roughnessFactor":0.47333332896232605
			}
		},
		{
			"doubleSided":true,
			"name":"blac",
			"pbrMetallicRoughness":{
				"baseColorFactor":[
					0,
					0,
					0,
					1
				],
				"metallicFactor":0,
				"roughnessFactor":0.5
			}
		},
		{
			"doubleSided":true,
			"name":"Edges",
			"pbrMetallicRoughness":{
				"baseColorFactor":[
					0.049548909068107605,
					0.049548909068107605,
					0.049548909068107605,
					1
				],
				"metallicFactor":0,
				"roughnessFactor":0.5
			}
		},
		{
			"doubleSided":true,
			"name":"SchoolBusStripes2",
			"pbrMetallicRoughness":{
				"baseColorFactor":[
					0,
					0,
					0,
					1
				],
				"metallicFactor":0,
				"roughnessFactor":0.5
			}
		}
	],
	"meshes":[
		{
			"name":"Cube.035",
			"primitives":[
				{
					"attributes":{
						"POSITION":0,
						"NORMAL":1,
						"TEXCOORD_0":2
					},
					"indices":3,
					"material":0
				},
				{
					"attributes":{
						"POSITION":4,
						"NORMAL":5,
						"TEXCOORD_0":6
					},
					"indices":7,
					"material":1
				},
				{
					"attributes":{
						"POSITION":8,
						"NORMAL":9,
						"TEXCOORD_0":10
					},
					"indices":11,
					"material":2
				},
				{
					"attributes":{
						"POSITION":12,
						"NORMAL":13,
						"TEXCOORD_0":14
					},
					"indices":15,
					"material":3
				},
				{
					"attributes":{
						"POSITION":16,
						"NORMAL":17,
						"TEXCOORD_0":18
					},
					"indices":19,
					"material":4
				},
				{
					"attributes":{
						"POSITION":20,
						"NORMAL":21,
						"TEXCOORD_0":22
					},
					"indices":23,
					"material":5
				},
				{
					"attributes":{
						"POSITION":24,
						"NORMAL":25,
						"TEXCOORD_0":26
					},
					"indices":27,
					"material":6
				},
				{
					"attributes":{
						"POSITION":28,
						"NORMAL":29,
						"TEXCOORD_0":30
					},
					"indices":31,
					"material":7
				},
				{
					"attributes":{
						"POSITION":32,
						"NORMAL":33,
						"TEXCOORD_0":34
					},
					"indices":35,
					"material":8
				},
				{
					"attributes":{
						"POSITION":36,
						"NORMAL":37,
						"TEXCOORD_0":38
					},
					"indices":39,
					"material":9
				},
				{
					"attributes":{
						"POSITION":40,
						"NORMAL":41,
						"TEXCOORD_0":42
					},
					"indices":43,
					"material":10
				}
			]
		}
	],
	"accessors":[
		{
			"bufferView":0,
			"componentType":5126,
			"count":1328,
			"max":[
				1.4170124530792236,
				0.4873747229576111,
				0.42198026180267334
			],
			"min":[
				-1.545769214630127,
				-0.4456828832626343,
				-0.43070438504219055
			],
			"type":"VEC3"
		},
		{
			"bufferView":1,
			"componentType":5126,
			"count":1328,
			"type":"VEC3"
		},
		{
			"bufferView":2,
			"componentType":5126,
			"count":1328,
			"type":"VEC2"
		},
		{
			"bufferView":3,
			"componentType":5123,
			"count":3309,
			"type":"SCALAR"
		},
		{
			"bufferView":4,
			"componentType":5126,
			"count":132,
			"max":[
				1.4104299545288086,
				0.4465098977088928,
				0.5093106031417847
			],
			"min":[
				-1.3237214088439941,
				-0.30112096667289734,
				-0.5180346965789795
			],
			"type":"VEC3"
		},
		{
			"bufferView":5,
			"componentType":5126,
			"count":132,
			"type":"VEC3"
		},
		{
			"bufferView":6,
			"componentType":5126,
			"count":132,
			"type":"VEC2"
		},
		{
			"bufferView":7,
			"componentType":5123,
			"count":276,
			"type":"SCALAR"
		},
		{
			"bufferView":8,
			"componentType":5126,
			"count":32,
			"max":[
				1.4306554794311523,
				-0.2558079957962036,
				0.2529659569263458
			],
			"min":[
				1.4170124530792236,
				-0.35277074575424194,
				-0.26169005036354065
			],
			"type":"VEC3"
		},
		{
			"bufferView":9,
			"componentType":5126,
			"count":32,
			"type":"VEC3"
		},
		{
			"bufferView":10,
			"componentType":5126,
			"count":32,
			"type":"VEC2"
		},
		{
			"bufferView":11,
			"componentType":5123,
			"count":48,
			"type":"SCALAR"
		},
		{
			"bufferView":12,
			"componentType":5126,
			"count":56,
			"max":[
				1.4306554794311523,
				-0.2558079957962036,
				0.4041106700897217
			],
			"min":[
				-1.543147087097168,
				-0.3665672540664673,
				-0.41283488273620605
			],
			"type":"VEC3"
		},
		{
			"bufferView":13,
			"componentType":5126,
			"count":56,
			"type":"VEC3"
		},
		{
			"bufferView":14,
			"componentType":5126,
			"count":56,
			"type":"VEC2"
		},
		{
			"bufferView":15,
			"componentType":5123,
			"count":84,
			"type":"SCALAR"
		},
		{
			"bufferView":16,
			"componentType":5126,
			"count":32,
			"max":[
				1.4306554794311523,
				-0.2558079957962036,
				0.40669000148773193
			],
			"min":[
				1.4170124530792236,
				-0.35277074575424194,
				-0.41541409492492676
			],
			"type":"VEC3"
		},
		{
			"bufferView":17,
			"componentType":5126,
			"count":32,
			"type":"VEC3"
		},
		{
			"bufferView":18,
			"componentType":5126,
			"count":32,
			"type":"VEC2"
		},
		{
			"bufferView":19,
			"componentType":5123,
			"count":48,
			"type":"SCALAR"
		},
		{
			"bufferView":20,
			"componentType":5126,
			"count":724,
			"max":[
				1.4170124530792236,
				0.2111823558807373,
				0.5259329676628113
			],
			"min":[
				-1.5729904174804688,
				-0.604237973690033,
				-0.5346571207046509
			],
			"type":"VEC3"
		},
		{
			"bufferView":21,
			"componentType":5126,
			"count":724,
			"type":"VEC3"
		},
		{
			"bufferView":22,
			"componentType":5126,
			"count":724,
			"type":"VEC2"
		},
		{
			"bufferView":23,
			"componentType":5123,
			"count":1224,
			"type":"SCALAR"
		},
		{
			"bufferView":24,
			"componentType":5126,
			"count":98,
			"max":[
				-1.529468059539795,
				-0.2918490171432495,
				0.4041106700897217
			],
			"min":[
				-1.545769214630127,
				-0.3665672540664673,
				-0.41283488273620605
			],
			"type":"VEC3"
		},
		{
			"bufferView":25,
			"componentType":5126,
			"count":98,
			"type":"VEC3"
		},
		{
			"bufferView":26,
			"componentType":5126,
			"count":98,
			"type":"VEC2"
		},
		{
			"bufferView":27,
			"componentType":5123,
			"count":192,
			"type":"SCALAR"
		},
		{
			"bufferView":28,
			"componentType":5126,
			"count":10,
			"max":[
				-1.3325777053833008,
				0.47219520807266235,
				0.40482038259506226
			],
			"min":[
				-1.3325777053833008,
				0.317671537399292,
				-0.4135444760322571
			],
			"type":"VEC3"
		},
		{
			"bufferView":29,
			"componentType":5126,
			"count":10,
			"type":"VEC3"
		},
		{
			"bufferView":30,
			"componentType":5126,
			"count":10,
			"type":"VEC2"
		},
		{
			"bufferView":31,
			"componentType":5123,
			"count":24,
			"type":"SCALAR"
		},
		{
			"bufferView":32,
			"componentType":5126,
			"count":464,
			"max":[
				1.4464383125305176,
				-0.2397383153438568,
				0.45807957649230957
			],
			"min":[
				-0.8879914283752441,
				-0.604237973690033,
				-0.4668036699295044
			],
			"type":"VEC3"
		},
		{
			"bufferView":33,
			"componentType":5126,
			"count":464,
			"type":"VEC3"
		},
		{
			"bufferView":34,
			"componentType":5126,
			"count":464,
			"type":"VEC2"
		},
		{
			"bufferView":35,
			"componentType":5123,
			"count":762,
			"type":"SCALAR"
		},
		{
			"bufferView":36,
			"componentType":5126,
			"count":1088,
			"max":[
				1.004504919052124,
				-0.30775490403175354,
				0.4223872423171997
			],
			"min":[
				-0.8199748992919922,
				-0.5362213850021362,
				-0.4311113953590393
			],
			"type":"VEC3"
		},
		{
			"bufferView":37,
			"componentType":5126,
			"count":1088,
			"type":"VEC3"
		},
		{
			"bufferView":38,
			"componentType":5126,
			"count":1088,
			"type":"VEC2"
		},
		{
			"bufferView":39,
			"componentType":5123,
			"count":1704,
			"type":"SCALAR"
		},
		{
			"bufferView":40,
			"componentType":5126,
			"count":40,
			"max":[
				1.4170124530792236,
				-0.14154860377311707,
				0.43070387840270996
			],
			"min":[
				-0.7842798233032227,
				-0.18193858861923218,
				-0.4307038486003876
			],
			"type":"VEC3"
		},
		{
			"bufferView":41,
			"componentType":5126,
			"count":40,
			"type":"VEC3"
		},
		{
			"bufferView":42,
			"componentType":5126,
			"count":40,
			"type":"VEC2"
		},
		{
			"bufferView":43,
			"componentType":5123,
			"count":108,
			"type":"SCALAR"
		}
	],
	"bufferViews":[
		{
			"buffer":0,
			"byteLength":15936,
			"byteOffset":0,
			"target":34962
		},
		{
			"buffer":0,
			"byteLength":15936,
			"byteOffset":15936,
			"target":34962
		},
		{
			"buffer":0,
			"byteLength":10624,
			"byteOffset":31872,
			"target":34962
		},
		{
			"buffer":0,
			"byteLength":6618,
			"byteOffset":42496,
			"target":34963
		},
		{
			"buffer":0,
			"byteLength":1584,
			"byteOffset":49116,
			"target":34962
		},
		{
			"buffer":0,
			"byteLength":1584,
			"byteOffset":50700,
			"target":34962
		},
		{
			"buffer":0,
			"byteLength":1056,
			"byteOffset":52284,
			"target":34962
		},
		{
			"buffer":0,
			"byteLength":552,
			"byteOffset":53340,
			"target":34963
		},
		{
			"buffer":0,
			"byteLength":384,
			"byteOffset":53892,
			"target":34962
		},
		{
			"buffer":0,
			"byteLength":384,
			"byteOffset":54276,
			"target":34962
		},
		{
			"buffer":0,
			"byteLength":256,
			"byteOffset":54660,
			"target":34962
		},
		{
			"buffer":0,
			"byteLength":96,
			"byteOffset":54916,
			"target":34963
		},
		{
			"buffer":0,
			"byteLength":672,
			"byteOffset":55012,
			"target":34962
		},
		{
			"buffer":0,
			"byteLength":672,
			"byteOffset":55684,
			"target":34962
		},
		{
			"buffer":0,
			"byteLength":448,
			"byteOffset":56356,
			"target":34962
		},
		{
			"buffer":0,
			"byteLength":168,
			"byteOffset":56804,
			"target":34963
		},
		{
			"buffer":0,
			"byteLength":384,
			"byteOffset":56972,
			"target":34962
		},
		{
			"buffer":0,
			"byteLength":384,
			"byteOffset":57356,
			"target":34962
		},
		{
			"buffer":0,
			"byteLength":256,
			"byteOffset":57740,
			"target":34962
		},
		{
			"buffer":0,
			"byteLength":96,
			"byteOffset":57996,
			"target":34963
		},
		{
			"buffer":0,
			"byteLength":8688,
			"byteOffset":58092,
			"target":34962
		},
		{
			"buffer":0,
			"byteLength":8688,
			"byteOffset":66780,
			"target":34962
		},
		{
			"buffer":0,
			"byteLength":5792,
			"byteOffset":75468,
			"target":34962
		},
		{
			"buffer":0,
			"byteLength":2448,
			"byteOffset":81260,
			"target":34963
		},
		{
			"buffer":0,
			"byteLength":1176,
			"byteOffset":83708,
			"target":34962
		},
		{
			"buffer":0,
			"byteLength":1176,
			"byteOffset":84884,
			"target":34962
		},
		{
			"buffer":0,
			"byteLength":784,
			"byteOffset":86060,
			"target":34962
		},
		{
			"buffer":0,
			"byteLength":384,
			"byteOffset":86844,
			"target":34963
		},
		{
			"buffer":0,
			"byteLength":120,
			"byteOffset":87228,
			"target":34962
		},
		{
			"buffer":0,
			"byteLength":120,
			"byteOffset":87348,
			"target":34962
		},
		{
			"buffer":0,
			"byteLength":80,
			"byteOffset":87468,
			"target":34962
		},
		{
			"buffer":0,
			"byteLength":48,
			"byteOffset":87548,
			"target":34963
		},
		{
			"buffer":0,
			"byteLength":5568,
			"byteOffset":87596,
			"target":34962
		},
		{
			"buffer":0,
			"byteLength":5568,
			"byteOffset":93164,
			"target":34962
		},
		{
			"buffer":0,
			"byteLength":3712,
			"byteOffset":98732,
			"target":34962
		},
		{
			"buffer":0,
			"byteLength":1524,
			"byteOffset":102444,
			"target":34963
		},
		{
			"buffer":0,
			"byteLength":13056,
			"byteOffset":103968,
			"target":34962
		},
		{
			"buffer":0,
			"byteLength":13056,
			"byteOffset":117024,
			"target":34962
		},
		{
			"buffer":0,
			"byteLength":8704,
			"byteOffset":130080,
			"target":34962
		},
		{
			"buffer":0,
			"byteLength":3408,
			"byteOffset":138784,
			"target":34963
		},
		{
			"buffer":0,
			"byteLength":480,
			"byteOffset":142192,
			"target":34962
		},
		{
			"buffer":0,
			"byteLength":480,
			"byteOffset":142672,
			"target":34962
		},
		{
			"buffer":0,
			"byteLength":320,
			"byteOffset":143152,
			"target":34962
		},
		{
			"buffer":0,
			"byteLength":216,
			"byteOffset":143472,
			"target":34963
		}
	],
	"buffers":[
		{
			"byteLength":143688,
			"uri":"yellow_bus.bin"
		}
	]
}
