{
	"asset":{
		"generator":"Khronos glTF Blender I/O v4.2.70",
		"version":"2.0"
	},
	"scene":0,
	"scenes":[
		{
			"name":"Scene",
			"nodes":[
				0
			]
		}
	],
	"nodes":[
		{
			"mesh":0,
			"name":"Truck1"
		}
	],
	"materials":[
		{
			"doubleSided":true,
			"name":"blac",
			"pbrMetallicRoughness":{
				"baseColorFactor":[
					0,
					0,
					0,
					1
				],
				"metallicFactor":0,
				"roughnessFactor":0.5
			}
		},
		{
			"doubleSided":true,
			"name":"Edges",
			"pbrMetallicRoughness":{
				"baseColorFactor":[
					0.049548909068107605,
					0.049548909068107605,
					0.049548909068107605,
					1
				],
				"metallicFactor":0,
				"roughnessFactor":0.5
			}
		},
		{
			"doubleSided":true,
			"name":"Truck1",
			"pbrMetallicRoughness":{
				"baseColorFactor":[
					0.006370013579726219,
					0.0053774709813296795,
					0.005804835353046656,
					1
				],
				"metallicFactor":0,
				"roughnessFactor":0.2866666615009308
			}
		},
		{
			"doubleSided":true,
			"name":"Car1Windows",
			"pbrMetallicRoughness":{
				"baseColorFactor":[
					0.048856910318136215,
					0.1685173064470291,
					0.8000000715255737,
					1
				],
				"metallicFactor":0,
				"roughnessFactor":0.5
			}
		},
		{
			"doubleSided":true,
			"name":"CarFront",
			"pbrMetallicRoughness":{
				"baseColorFactor":[
					0.09850385785102844,
					0.09850385785102844,
					0.09850385785102844,
					1
				],
				"metallicFactor":0,
				"roughnessFactor":0.5
			}
		},
		{
			"doubleSided":true,
			"name":"CarEdges",
			"pbrMetallicRoughness":{
				"baseColorFactor":[
					0,
					0,
					0,
					1
				],
				"metallicFactor":0,
				"roughnessFactor":0.5
			}
		},
		{
			"doubleSided":true,
			"name":"CarLights",
			"pbrMetallicRoughness":{
				"baseColorFactor":[
					0.5367804169654846,
					0.8000000715255737,
					0.028742065653204918,
					1
				],
				"metallicFactor":0,
				"roughnessFactor":0.5
			}
		},
		{
			"doubleSided":true,
			"name":"White",
			"pbrMetallicRoughness":{
				"baseColorFactor":[
					0.800000011920929,
					0.800000011920929,
					0.800000011920929,
					1
				],
				"metallicFactor":0,
				"roughnessFactor":0.47333332896232605
			}
		},
		{
			"doubleSided":true,
			"name":"BackLights",
			"pbrMetallicRoughness":{
				"baseColorFactor":[
					0.8000000715255737,
					0,
					0.009557452984154224,
					1
				],
				"metallicFactor":0,
				"roughnessFactor":0.5
			}
		}
	],
	"meshes":[
		{
			"name":"Cylinder.035",
			"primitives":[
				{
					"attributes":{
						"POSITION":0,
						"NORMAL":1,
						"TEXCOORD_0":2
					},
					"indices":3,
					"material":0
				},
				{
					"attributes":{
						"POSITION":4,
						"NORMAL":5,
						"TEXCOORD_0":6
					},
					"indices":7,
					"material":1
				},
				{
					"attributes":{
						"POSITION":8,
						"NORMAL":9,
						"TEXCOORD_0":10
					},
					"indices":11,
					"material":2
				},
				{
					"attributes":{
						"POSITION":12,
						"NORMAL":13,
						"TEXCOORD_0":14
					},
					"indices":15,
					"material":3
				},
				{
					"attributes":{
						"POSITION":16,
						"NORMAL":17,
						"TEXCOORD_0":18
					},
					"indices":19,
					"material":4
				},
				{
					"attributes":{
						"POSITION":20,
						"NORMAL":21,
						"TEXCOORD_0":22
					},
					"indices":23,
					"material":5
				},
				{
					"attributes":{
						"POSITION":24,
						"NORMAL":25,
						"TEXCOORD_0":26
					},
					"indices":27,
					"material":6
				},
				{
					"attributes":{
						"POSITION":28,
						"NORMAL":29,
						"TEXCOORD_0":30
					},
					"indices":31,
					"material":7
				},
				{
					"attributes":{
						"POSITION":32,
						"NORMAL":33,
						"TEXCOORD_0":34
					},
					"indices":35,
					"material":8
				}
			]
		}
	],
	"accessors":[
		{
			"bufferView":0,
			"componentType":5126,
			"count":1664,
			"max":[
				0.963348925113678,
				0.4604949951171875,
				0.6658408641815186
			],
			"min":[
				-0.8700968027114868,
				-0.46050143241882324,
				0.32037487626075745
			],
			"type":"VEC3"
		},
		{
			"bufferView":1,
			"componentType":5126,
			"count":1664,
			"type":"VEC3"
		},
		{
			"bufferView":2,
			"componentType":5126,
			"count":1664,
			"type":"VEC2"
		},
		{
			"bufferView":3,
			"componentType":5123,
			"count":2640,
			"type":"SCALAR"
		},
		{
			"bufferView":4,
			"componentType":5126,
			"count":512,
			"max":[
				0.893043041229248,
				0.4361121654510498,
				0.5955349802970886
			],
			"min":[
				-0.7997907400131226,
				-0.43611860275268555,
				0.390680730342865
			],
			"type":"VEC3"
		},
		{
			"bufferView":5,
			"componentType":5126,
			"count":512,
			"type":"VEC3"
		},
		{
			"bufferView":6,
			"componentType":5126,
			"count":512,
			"type":"VEC2"
		},
		{
			"bufferView":7,
			"componentType":5123,
			"count":768,
			"type":"SCALAR"
		},
		{
			"bufferView":8,
			"componentType":5126,
			"count":999,
			"max":[
				1.320016622543335,
				0.45703840255737305,
				0.49624788761138916
			],
			"min":[
				-1.2121464014053345,
				-0.45704054832458496,
				-0.5053538084030151
			],
			"type":"VEC3"
		},
		{
			"bufferView":9,
			"componentType":5126,
			"count":999,
			"type":"VEC3"
		},
		{
			"bufferView":10,
			"componentType":5126,
			"count":999,
			"type":"VEC2"
		},
		{
			"bufferView":11,
			"componentType":5123,
			"count":2292,
			"type":"SCALAR"
		},
		{
			"bufferView":12,
			"componentType":5126,
			"count":26,
			"max":[
				1.2522974014282227,
				0.44220709800720215,
				0.07418334484100342
			],
			"min":[
				0.8651267290115356,
				-0.44259190559387207,
				-0.18995022773742676
			],
			"type":"VEC3"
		},
		{
			"bufferView":13,
			"componentType":5126,
			"count":26,
			"type":"VEC3"
		},
		{
			"bufferView":14,
			"componentType":5126,
			"count":26,
			"type":"VEC2"
		},
		{
			"bufferView":15,
			"componentType":5123,
			"count":48,
			"type":"SCALAR"
		},
		{
			"bufferView":16,
			"componentType":5126,
			"count":319,
			"max":[
				1.2976772785186768,
				0.4007706642150879,
				0.49624788761138916
			],
			"min":[
				-1.196661114692688,
				-0.4007725715637207,
				0.1794419288635254
			],
			"type":"VEC3"
		},
		{
			"bufferView":17,
			"componentType":5126,
			"count":319,
			"type":"VEC3"
		},
		{
			"bufferView":18,
			"componentType":5126,
			"count":319,
			"type":"VEC2"
		},
		{
			"bufferView":19,
			"componentType":5123,
			"count":624,
			"type":"SCALAR"
		},
		{
			"bufferView":20,
			"componentType":5126,
			"count":210,
			"max":[
				1.2199962139129639,
				0.45703840255737305,
				0.4931079149246216
			],
			"min":[
				0.6251112222671509,
				-0.45704054832458496,
				-0.19529378414154053
			],
			"type":"VEC3"
		},
		{
			"bufferView":21,
			"componentType":5126,
			"count":210,
			"type":"VEC3"
		},
		{
			"bufferView":22,
			"componentType":5126,
			"count":210,
			"type":"VEC2"
		},
		{
			"bufferView":23,
			"componentType":5123,
			"count":348,
			"type":"SCALAR"
		},
		{
			"bufferView":24,
			"componentType":5126,
			"count":40,
			"max":[
				1.2866909503936768,
				0.37638020515441895,
				0.3559243381023407
			],
			"min":[
				1.2753305435180664,
				-0.37638235092163086,
				0.3096320927143097
			],
			"type":"VEC3"
		},
		{
			"bufferView":25,
			"componentType":5126,
			"count":40,
			"type":"VEC3"
		},
		{
			"bufferView":26,
			"componentType":5126,
			"count":40,
			"type":"VEC2"
		},
		{
			"bufferView":27,
			"componentType":5123,
			"count":60,
			"type":"SCALAR"
		},
		{
			"bufferView":28,
			"componentType":5126,
			"count":26,
			"max":[
				0.5627268552780151,
				0.38878417015075684,
				0.296289324760437
			],
			"min":[
				-1.1337910890579224,
				-0.38878631591796875,
				-0.5779194831848145
			],
			"type":"VEC3"
		},
		{
			"bufferView":29,
			"componentType":5126,
			"count":26,
			"type":"VEC3"
		},
		{
			"bufferView":30,
			"componentType":5126,
			"count":26,
			"type":"VEC2"
		},
		{
			"bufferView":31,
			"componentType":5123,
			"count":48,
			"type":"SCALAR"
		},
		{
			"bufferView":32,
			"componentType":5126,
			"count":8,
			"max":[
				-1.2121461629867554,
				0.29610443115234375,
				0.4243539571762085
			],
			"min":[
				-1.2121464014053345,
				-0.29610681533813477,
				0.3681831955909729
			],
			"type":"VEC3"
		},
		{
			"bufferView":33,
			"componentType":5126,
			"count":8,
			"type":"VEC3"
		},
		{
			"bufferView":34,
			"componentType":5126,
			"count":8,
			"type":"VEC2"
		},
		{
			"bufferView":35,
			"componentType":5123,
			"count":12,
			"type":"SCALAR"
		}
	],
	"bufferViews":[
		{
			"buffer":0,
			"byteLength":19968,
			"byteOffset":0,
			"target":34962
		},
		{
			"buffer":0,
			"byteLength":19968,
			"byteOffset":19968,
			"target":34962
		},
		{
			"buffer":0,
			"byteLength":13312,
			"byteOffset":39936,
			"target":34962
		},
		{
			"buffer":0,
			"byteLength":5280,
			"byteOffset":53248,
			"target":34963
		},
		{
			"buffer":0,
			"byteLength":6144,
			"byteOffset":58528,
			"target":34962
		},
		{
			"buffer":0,
			"byteLength":6144,
			"byteOffset":64672,
			"target":34962
		},
		{
			"buffer":0,
			"byteLength":4096,
			"byteOffset":70816,
			"target":34962
		},
		{
			"buffer":0,
			"byteLength":1536,
			"byteOffset":74912,
			"target":34963
		},
		{
			"buffer":0,
			"byteLength":11988,
			"byteOffset":76448,
			"target":34962
		},
		{
			"buffer":0,
			"byteLength":11988,
			"byteOffset":88436,
			"target":34962
		},
		{
			"buffer":0,
			"byteLength":7992,
			"byteOffset":100424,
			"target":34962
		},
		{
			"buffer":0,
			"byteLength":4584,
			"byteOffset":108416,
			"target":34963
		},
		{
			"buffer":0,
			"byteLength":312,
			"byteOffset":113000,
			"target":34962
		},
		{
			"buffer":0,
			"byteLength":312,
			"byteOffset":113312,
			"target":34962
		},
		{
			"buffer":0,
			"byteLength":208,
			"byteOffset":113624,
			"target":34962
		},
		{
			"buffer":0,
			"byteLength":96,
			"byteOffset":113832,
			"target":34963
		},
		{
			"buffer":0,
			"byteLength":3828,
			"byteOffset":113928,
			"target":34962
		},
		{
			"buffer":0,
			"byteLength":3828,
			"byteOffset":117756,
			"target":34962
		},
		{
			"buffer":0,
			"byteLength":2552,
			"byteOffset":121584,
			"target":34962
		},
		{
			"buffer":0,
			"byteLength":1248,
			"byteOffset":124136,
			"target":34963
		},
		{
			"buffer":0,
			"byteLength":2520,
			"byteOffset":125384,
			"target":34962
		},
		{
			"buffer":0,
			"byteLength":2520,
			"byteOffset":127904,
			"target":34962
		},
		{
			"buffer":0,
			"byteLength":1680,
			"byteOffset":130424,
			"target":34962
		},
		{
			"buffer":0,
			"byteLength":696,
			"byteOffset":132104,
			"target":34963
		},
		{
			"buffer":0,
			"byteLength":480,
			"byteOffset":132800,
			"target":34962
		},
		{
			"buffer":0,
			"byteLength":480,
			"byteOffset":133280,
			"target":34962
		},
		{
			"buffer":0,
			"byteLength":320,
			"byteOffset":133760,
			"target":34962
		},
		{
			"buffer":0,
			"byteLength":120,
			"byteOffset":134080,
			"target":34963
		},
		{
			"buffer":0,
			"byteLength":312,
			"byteOffset":134200,
			"target":34962
		},
		{
			"buffer":0,
			"byteLength":312,
			"byteOffset":134512,
			"target":34962
		},
		{
			"buffer":0,
			"byteLength":208,
			"byteOffset":134824,
			"target":34962
		},
		{
			"buffer":0,
			"byteLength":96,
			"byteOffset":135032,
			"target":34963
		},
		{
			"buffer":0,
			"byteLength":96,
			"byteOffset":135128,
			"target":34962
		},
		{
			"buffer":0,
			"byteLength":96,
			"byteOffset":135224,
			"target":34962
		},
		{
			"buffer":0,
			"byteLength":64,
			"byteOffset":135320,
			"target":34962
		},
		{
			"buffer":0,
			"byteLength":24,
			"byteOffset":135384,
			"target":34963
		}
	],
	"buffers":[
		{
			"byteLength":135408,
			"uri":"black_truck.bin"
		}
	]
}
